<svg width="17" height="16" viewBox="0 0 17 16" fill="none" xmlns="http://www.w3.org/2000/svg">
<g clip-path="url(#clip0_144_1723)">
<path d="M2.79688 1C1.69375 1 0.796875 1.89688 0.796875 3V5C0.796875 6.10313 1.69375 7 2.79688 7H14.7969C15.9 7 16.7969 6.10313 16.7969 5V3C16.7969 1.89688 15.9 1 14.7969 1H2.79688ZM11.5469 3.25C11.7458 3.25 11.9366 3.32902 12.0772 3.46967C12.2179 3.61032 12.2969 3.80109 12.2969 4C12.2969 4.19891 12.2179 4.38968 12.0772 4.53033C11.9366 4.67098 11.7458 4.75 11.5469 4.75C11.348 4.75 11.1572 4.67098 11.0165 4.53033C10.8759 4.38968 10.7969 4.19891 10.7969 4C10.7969 3.80109 10.8759 3.61032 11.0165 3.46967C11.1572 3.32902 11.348 3.25 11.5469 3.25ZM13.0469 4C13.0469 3.80109 13.1259 3.61032 13.2665 3.46967C13.4072 3.32902 13.598 3.25 13.7969 3.25C13.9958 3.25 14.1866 3.32902 14.3272 3.46967C14.4679 3.61032 14.5469 3.80109 14.5469 4C14.5469 4.19891 14.4679 4.38968 14.3272 4.53033C14.1866 4.67098 13.9958 4.75 13.7969 4.75C13.598 4.75 13.4072 4.67098 13.2665 4.53033C13.1259 4.38968 13.0469 4.19891 13.0469 4ZM2.79688 9C1.69375 9 0.796875 9.89688 0.796875 11V13C0.796875 14.1031 1.69375 15 2.79688 15H14.7969C15.9 15 16.7969 14.1031 16.7969 13V11C16.7969 9.89688 15.9 9 14.7969 9H2.79688ZM11.5469 11.25C11.7458 11.25 11.9366 11.329 12.0772 11.4697C12.2179 11.6103 12.2969 11.8011 12.2969 12C12.2969 12.1989 12.2179 12.3897 12.0772 12.5303C11.9366 12.671 11.7458 12.75 11.5469 12.75C11.348 12.75 11.1572 12.671 11.0165 12.5303C10.8759 12.3897 10.7969 12.1989 10.7969 12C10.7969 11.8011 10.8759 11.6103 11.0165 11.4697C11.1572 11.329 11.348 11.25 11.5469 11.25ZM13.2969 12C13.2969 11.8011 13.3759 11.6103 13.5165 11.4697C13.6572 11.329 13.848 11.25 14.0469 11.25C14.2458 11.25 14.4366 11.329 14.5772 11.4697C14.7179 11.6103 14.7969 11.8011 14.7969 12C14.7969 12.1989 14.7179 12.3897 14.5772 12.5303C14.4366 12.671 14.2458 12.75 14.0469 12.75C13.848 12.75 13.6572 12.671 13.5165 12.5303C13.3759 12.3897 13.2969 12.1989 13.2969 12Z" fill="#4AB2E3"/>
</g>
<defs>
<clipPath id="clip0_144_1723">
<path d="M0.796875 0H16.7969V16H0.796875V0Z" fill="white"/>
</clipPath>
</defs>
</svg>
