<svg width="19" height="15" viewBox="0 0 19 15" fill="none" xmlns="http://www.w3.org/2000/svg">
<path d="M3.20312 4.25C3.20312 3.32174 3.57187 2.4315 4.22825 1.77513C4.88463 1.11875 5.77487 0.75 6.70312 0.75C7.63138 0.75 8.52162 1.11875 9.178 1.77513C9.83438 2.4315 10.2031 3.32174 10.2031 4.25C10.2031 5.17826 9.83438 6.0685 9.178 6.72487C8.52162 7.38125 7.63138 7.75 6.70312 7.75C5.77487 7.75 4.88463 7.38125 4.22825 6.72487C3.57187 6.0685 3.20312 5.17826 3.20312 4.25ZM0.578125 13.9379C0.578125 11.2445 2.76016 9.0625 5.45352 9.0625H7.95273C10.6461 9.0625 12.8281 11.2445 12.8281 13.9379C12.8281 14.3863 12.4645 14.75 12.016 14.75H1.39023C0.941797 14.75 0.578125 14.3863 0.578125 13.9379ZM13.457 4.66016C13.7141 4.40313 14.1297 4.40313 14.384 4.66016L15.6691 5.94531L16.9543 4.66016C17.2113 4.40313 17.627 4.40313 17.8813 4.66016C18.1355 4.91719 18.1383 5.33281 17.8813 5.58711L16.5961 6.87227L17.8813 8.15742C18.1383 8.41445 18.1383 8.83008 17.8813 9.08437C17.6242 9.33867 17.2086 9.34141 16.9543 9.08437L15.6691 7.79922L14.384 9.08437C14.127 9.34141 13.7113 9.34141 13.457 9.08437C13.2027 8.82734 13.2 8.41172 13.457 8.15742L14.7422 6.87227L13.457 5.58711C13.2 5.33008 13.2 4.91445 13.457 4.66016Z" fill="#E53E3E"/>
</svg>
