<svg width="17" height="16" viewBox="0 0 17 16" fill="none" xmlns="http://www.w3.org/2000/svg">
<g clip-path="url(#clip0_144_1747)">
<path d="M5.0656 1.19376C5.37498 1.47188 5.39998 1.94376 5.12185 2.25313L2.87185 4.75313C2.73435 4.90626 2.5406 4.99688 2.33435 5.00001C2.1281 5.00313 1.93123 4.92501 1.78435 4.78126L0.531226 3.53126C0.240601 3.23751 0.240601 2.76251 0.531226 2.46876C0.821851 2.17501 1.29998 2.17501 1.5906 2.46876L2.28123 3.15938L4.0031 1.24688C4.28123 0.937506 4.7531 0.912506 5.06248 1.19063L5.0656 1.19376ZM5.0656 6.19376C5.37498 6.47188 5.39998 6.94376 5.12185 7.25313L2.87185 9.75313C2.73435 9.90626 2.5406 9.99688 2.33435 10C2.1281 10.0031 1.93123 9.92501 1.78435 9.78126L0.531226 8.53126C0.237476 8.23751 0.237476 7.76251 0.531226 7.47188C0.824976 7.18126 1.29998 7.17813 1.5906 7.47188L2.28123 8.16251L4.0031 6.25001C4.28123 5.94063 4.7531 5.91563 5.06248 6.19376H5.0656ZM7.31248 3.00001C7.31248 2.44688 7.75935 2.00001 8.31248 2.00001H15.3125C15.8656 2.00001 16.3125 2.44688 16.3125 3.00001C16.3125 3.55313 15.8656 4.00001 15.3125 4.00001H8.31248C7.75935 4.00001 7.31248 3.55313 7.31248 3.00001ZM7.31248 8.00001C7.31248 7.44688 7.75935 7.00001 8.31248 7.00001H15.3125C15.8656 7.00001 16.3125 7.44688 16.3125 8.00001C16.3125 8.55313 15.8656 9.00001 15.3125 9.00001H8.31248C7.75935 9.00001 7.31248 8.55313 7.31248 8.00001ZM5.31248 13C5.31248 12.4469 5.75935 12 6.31248 12H15.3125C15.8656 12 16.3125 12.4469 16.3125 13C16.3125 13.5531 15.8656 14 15.3125 14H6.31248C5.75935 14 5.31248 13.5531 5.31248 13ZM1.81248 11.5C2.2103 11.5 2.59183 11.658 2.87314 11.9393C3.15444 12.2206 3.31248 12.6022 3.31248 13C3.31248 13.3978 3.15444 13.7794 2.87314 14.0607C2.59183 14.342 2.2103 14.5 1.81248 14.5C1.41465 14.5 1.03312 14.342 0.751815 14.0607C0.470511 13.7794 0.312476 13.3978 0.312476 13C0.312476 12.6022 0.470511 12.2206 0.751815 11.9393C1.03312 11.658 1.41465 11.5 1.81248 11.5Z" fill="#4AB2E3"/>
</g>
<defs>
<clipPath id="clip0_144_1747">
<path d="M0.3125 0H16.3125V16H0.3125V0Z" fill="white"/>
</clipPath>
</defs>
</svg>
