<svg width="15" height="16" viewBox="0 0 15 16" fill="none" xmlns="http://www.w3.org/2000/svg">
<g clip-path="url(#clip0_144_1735)">
<path d="M14.1875 2.5V4C14.1875 5.38125 11.0531 6.5 7.1875 6.5C3.32188 6.5 0.1875 5.38125 0.1875 4V2.5C0.1875 1.11875 3.32188 0 7.1875 0C11.0531 0 14.1875 1.11875 14.1875 2.5ZM12.475 6.70937C13.125 6.47813 13.7219 6.18125 14.1875 5.81563V9C14.1875 10.3813 11.0531 11.5 7.1875 11.5C3.32188 11.5 0.1875 10.3813 0.1875 9V5.81563C0.653125 6.18438 1.25 6.47813 1.9 6.70937C3.30312 7.20937 5.17188 7.5 7.1875 7.5C9.20312 7.5 11.0719 7.20937 12.475 6.70937ZM0.1875 10.8156C0.653125 11.1844 1.25 11.4781 1.9 11.7094C3.30312 12.2094 5.17188 12.5 7.1875 12.5C9.20312 12.5 11.0719 12.2094 12.475 11.7094C13.125 11.4781 13.7219 11.1813 14.1875 10.8156V13.5C14.1875 14.8813 11.0531 16 7.1875 16C3.32188 16 0.1875 14.8813 0.1875 13.5V10.8156Z" fill="#4AB2E3"/>
</g>
<defs>
<clipPath id="clip0_144_1735">
<path d="M0.1875 0H14.1875V16H0.1875V0Z" fill="white"/>
</clipPath>
</defs>
</svg>
