<svg width="21" height="16" viewBox="0 0 21 16" fill="none" xmlns="http://www.w3.org/2000/svg">
<g clip-path="url(#clip0_144_1732)">
<path d="M10.2343 4.22813C10.4562 4.03125 10.5437 3.72188 10.4281 3.44688C10.3562 3.28125 10.2781 3.11875 10.1906 2.9625L10.0937 2.79375C9.99995 2.6375 9.89683 2.48438 9.78745 2.3375C9.60933 2.1 9.29683 2.02187 9.01558 2.11562L8.13433 2.40625C7.79995 2.13125 7.41558 1.90625 7.00308 1.75312L6.81245 0.846875C6.75308 0.55625 6.52808 0.325 6.23433 0.290625C6.02808 0.2625 5.8187 0.25 5.6062 0.25H5.58433C5.37183 0.25 5.16245 0.2625 4.9562 0.2875C4.66245 0.321875 4.43745 0.55625 4.37808 0.84375L4.18745 1.75312C3.77183 1.90937 3.39058 2.13125 3.0562 2.40625L2.17183 2.11875C1.89058 2.025 1.57808 2.10313 1.39995 2.34063C1.29058 2.4875 1.18745 2.64062 1.09058 2.79688L0.996827 2.9625C0.909327 3.11875 0.831202 3.28125 0.759327 3.45C0.643702 3.72187 0.731202 4.03125 0.953077 4.23125L1.64683 4.85C1.61245 5.05937 1.5937 5.27812 1.5937 5.5C1.5937 5.72188 1.61245 5.94062 1.64683 6.15312L0.953077 6.77187C0.731202 6.96875 0.643702 7.27812 0.759327 7.55312C0.831202 7.71875 0.909327 7.88125 0.996827 8.04062L1.09058 8.20312C1.18433 8.3625 1.28745 8.5125 1.39995 8.65938C1.57808 8.89688 1.89058 8.975 2.17183 8.88125L3.05308 8.59062C3.38745 8.86562 3.77183 9.09062 4.18433 9.24375L4.37495 10.1531C4.43433 10.4437 4.65933 10.675 4.95308 10.7094C5.16245 10.7344 5.37495 10.7469 5.59058 10.7469C5.8062 10.7469 6.0187 10.7344 6.22808 10.7094C6.52183 10.675 6.74683 10.4406 6.8062 10.1531L6.99683 9.24375C7.41245 9.0875 7.7937 8.86562 8.12808 8.59062L9.00933 8.88125C9.29058 8.975 9.60308 8.89688 9.7812 8.65938C9.89058 8.5125 9.9937 8.3625 10.0875 8.20312L10.1843 8.03438C10.2718 7.87813 10.35 7.71563 10.4218 7.55C10.5375 7.27813 10.45 6.96875 10.2281 6.76875L9.53433 6.15C9.5687 5.9375 9.58745 5.71875 9.58745 5.49687C9.58745 5.275 9.5687 5.05625 9.53433 4.84375L10.2281 4.225L10.2343 4.22813ZM4.0937 5.5C4.0937 5.10218 4.25174 4.72064 4.53304 4.43934C4.81435 4.15804 5.19588 4 5.5937 4C5.99153 4 6.37306 4.15804 6.65436 4.43934C6.93567 4.72064 7.0937 5.10218 7.0937 5.5C7.0937 5.89782 6.93567 6.27936 6.65436 6.56066C6.37306 6.84196 5.99153 7 5.5937 7C5.19588 7 4.81435 6.84196 4.53304 6.56066C4.25174 6.27936 4.0937 5.89782 4.0937 5.5ZM16.3656 15.6406C16.5625 15.8625 16.8718 15.95 17.1468 15.8344C17.3125 15.7625 17.475 15.6844 17.6312 15.5969L17.8 15.5C17.9562 15.4062 18.1093 15.3031 18.2562 15.1938C18.4937 15.0156 18.5718 14.7031 18.4781 14.4219L18.1875 13.5406C18.4625 13.2062 18.6875 12.8219 18.8406 12.4094L19.75 12.2188C20.0406 12.1594 20.2718 11.9344 20.3062 11.6406C20.3312 11.4312 20.3437 11.2188 20.3437 11.0031C20.3437 10.7875 20.3312 10.575 20.3062 10.3656C20.2718 10.0719 20.0375 9.84688 19.75 9.7875L18.8406 9.59375C18.6843 9.17813 18.4625 8.79688 18.1875 8.4625L18.4781 7.58125C18.5718 7.3 18.4937 6.9875 18.2562 6.80937C18.1093 6.7 17.9562 6.59688 17.8 6.5L17.6343 6.40625C17.4781 6.31875 17.3156 6.24062 17.1468 6.16875C16.875 6.05312 16.5656 6.14062 16.3656 6.3625L15.7468 7.05625C15.5343 7.02187 15.3156 7.00313 15.0937 7.00313C14.8718 7.00313 14.6531 7.02187 14.4406 7.05625L13.8218 6.3625C13.625 6.14062 13.3156 6.05312 13.0406 6.16875C12.875 6.24062 12.7125 6.31875 12.5531 6.40625L12.3906 6.5C12.2312 6.59375 12.0812 6.69687 11.9343 6.80937C11.6968 6.9875 11.6187 7.3 11.7125 7.58125L12.0031 8.4625C11.7281 8.79688 11.5031 9.18125 11.35 9.59375L10.4406 9.78125C10.15 9.84062 9.9187 10.0656 9.88433 10.3594C9.85933 10.5688 9.84683 10.7812 9.84683 10.9969C9.84683 11.2125 9.85933 11.425 9.88433 11.6344C9.9187 11.9281 10.1531 12.1531 10.4406 12.2125L11.35 12.4031C11.5062 12.8187 11.7281 13.2 12.0031 13.5344L11.7125 14.4156C11.6187 14.6969 11.6968 15.0094 11.9343 15.1875C12.0812 15.2969 12.2312 15.4 12.3906 15.4937L12.5593 15.5906C12.7156 15.6781 12.8781 15.7563 13.0437 15.8281C13.3156 15.9438 13.625 15.8562 13.825 15.6344L14.4437 14.9406C14.6562 14.975 14.875 14.9937 15.0968 14.9937C15.3187 14.9937 15.5375 14.975 15.75 14.9406L16.3687 15.6344L16.3656 15.6406ZM15.0937 9.5C15.2907 9.5 15.4857 9.5388 15.6677 9.61418C15.8497 9.68956 16.0151 9.80005 16.1544 9.93934C16.2937 10.0786 16.4041 10.244 16.4795 10.426C16.5549 10.608 16.5937 10.803 16.5937 11C16.5937 11.197 16.5549 11.392 16.4795 11.574C16.4041 11.756 16.2937 11.9214 16.1544 12.0607C16.0151 12.1999 15.8497 12.3104 15.6677 12.3858C15.4857 12.4612 15.2907 12.5 15.0937 12.5C14.8967 12.5 14.7017 12.4612 14.5197 12.3858C14.3377 12.3104 14.1723 12.1999 14.033 12.0607C13.8938 11.9214 13.7833 11.756 13.7079 11.574C13.6325 11.392 13.5937 11.197 13.5937 11C13.5937 10.803 13.6325 10.608 13.7079 10.426C13.7833 10.244 13.8938 10.0786 14.033 9.93934C14.1723 9.80005 14.3377 9.68956 14.5197 9.61418C14.7017 9.5388 14.8967 9.5 15.0937 9.5Z" fill="#4AB2E3"/>
</g>
<defs>
<clipPath id="clip0_144_1732">
<path d="M0.59375 0H20.5938V16H0.59375V0Z" fill="white"/>
</clipPath>
</defs>
</svg>
