<svg width="21" height="16" viewBox="0 0 21 16" fill="none" xmlns="http://www.w3.org/2000/svg">
<g clip-path="url(#clip0_205_2315)">
<path d="M7.0625 8C8.12337 8 9.14078 7.57857 9.89093 6.82843C10.6411 6.07828 11.0625 5.06087 11.0625 4C11.0625 2.93913 10.6411 1.92172 9.89093 1.17157C9.14078 0.421427 8.12337 0 7.0625 0C6.00163 0 4.98422 0.421427 4.23407 1.17157C3.48393 1.92172 3.0625 2.93913 3.0625 4C3.0625 5.06087 3.48393 6.07828 4.23407 6.82843C4.98422 7.57857 6.00163 8 7.0625 8ZM5.63438 9.5C2.55625 9.5 0.0625 11.9937 0.0625 15.0719C0.0625 15.5844 0.478125 16 0.990625 16H10.15C10.0531 15.725 10.0344 15.425 10.1062 15.1313L10.575 13.2531C10.6625 12.9 10.8438 12.5813 11.1 12.325L12.3594 11.0656C11.3562 10.0969 9.99375 9.5 8.4875 9.5H5.63438ZM19.2437 7.36562C18.7563 6.87812 17.9656 6.87812 17.475 7.36562L16.5562 8.28438L18.775 10.5031L19.6938 9.58438C20.1812 9.09688 20.1812 8.30625 19.6938 7.81563L19.2437 7.36562ZM11.8094 13.0312C11.6812 13.1594 11.5906 13.3187 11.5469 13.4969L11.0781 15.375C11.0344 15.5469 11.0844 15.725 11.2094 15.85C11.3344 15.975 11.5125 16.025 11.6844 15.9812L13.5625 15.5125C13.7375 15.4688 13.9 15.3781 14.0281 15.25L18.0656 11.2094L15.8469 8.99063L11.8094 13.0312Z" fill="#374B5F"/>
</g>
<defs>
<clipPath id="clip0_205_2315">
<path d="M0.0625 0H20.0625V16H0.0625V0Z" fill="white"/>
</clipPath>
</defs>
</svg>
