<svg width="19" height="16" viewBox="0 0 19 16" fill="none" xmlns="http://www.w3.org/2000/svg">
<g clip-path="url(#clip0_144_1726)">
<path d="M2.39062 0C1.2875 0 0.390625 0.896875 0.390625 2V11C0.390625 12.1031 1.2875 13 2.39062 13H7.89062L7.55625 14H5.39062C4.8375 14 4.39062 14.4469 4.39062 15C4.39062 15.5531 4.8375 16 5.39062 16H13.3906C13.9438 16 14.3906 15.5531 14.3906 15C14.3906 14.4469 13.9438 14 13.3906 14H11.225L10.8906 13H16.3906C17.4937 13 18.3906 12.1031 18.3906 11V2C18.3906 0.896875 17.4937 0 16.3906 0H2.39062ZM16.3906 2V9H2.39062V2H16.3906Z" fill="#4AB2E3"/>
</g>
<defs>
<clipPath id="clip0_144_1726">
<path d="M0.390625 0H18.3906V16H0.390625V0Z" fill="white"/>
</clipPath>
</defs>
</svg>
