<svg width="19" height="16" viewBox="0 0 19 16" fill="none" xmlns="http://www.w3.org/2000/svg">
<path d="M18.9844 16H0.984375V0H18.9844V16Z" stroke="#E5E7EB"/>
<path d="M9.25 0.162497C9.71562 -0.053128 10.2531 -0.053128 10.7188 0.162497L17.55 3.31875C17.8156 3.44062 17.9844 3.70625 17.9844 4C17.9844 4.29375 17.8156 4.55937 17.55 4.68125L10.7188 7.8375C10.2531 8.05312 9.71562 8.05312 9.25 7.8375L2.41875 4.68125C2.15313 4.55625 1.98438 4.29062 1.98438 4C1.98438 3.70937 2.15313 3.44062 2.41875 3.31875L9.25 0.162497ZM15.8875 6.55L17.55 7.31875C17.8156 7.44062 17.9844 7.70625 17.9844 8C17.9844 8.29375 17.8156 8.55937 17.55 8.68125L10.7188 11.8375C10.2531 12.0531 9.71562 12.0531 9.25 11.8375L2.41875 8.68125C2.15313 8.55625 1.98438 8.29062 1.98438 8C1.98438 7.70937 2.15313 7.44062 2.41875 7.31875L4.08125 6.55L8.83125 8.74375C9.5625 9.08125 10.4062 9.08125 11.1375 8.74375L15.8875 6.55ZM11.1375 12.7437L15.8875 10.55L17.55 11.3187C17.8156 11.4406 17.9844 11.7062 17.9844 12C17.9844 12.2937 17.8156 12.5594 17.55 12.6812L10.7188 15.8375C10.2531 16.0531 9.71562 16.0531 9.25 15.8375L2.41875 12.6812C2.15313 12.5562 1.98438 12.2906 1.98438 12C1.98438 11.7094 2.15313 11.4406 2.41875 11.3187L4.08125 10.55L8.83125 12.7437C9.5625 13.0812 10.4062 13.0812 11.1375 12.7437Z" fill="#4AB2E3"/>
</svg>
