<svg width="20" height="21" viewBox="0 0 20 21" fill="none" xmlns="http://www.w3.org/2000/svg">
<g clip-path="url(#clip0_200_1447)">
<g clip-path="url(#clip1_200_1447)">
<path d="M6.48047 15.7734C6.48047 15.8516 6.39062 15.9141 6.27734 15.9141C6.14844 15.9258 6.05859 15.8633 6.05859 15.7734C6.05859 15.6953 6.14844 15.6328 6.26172 15.6328C6.37891 15.6211 6.48047 15.6836 6.48047 15.7734ZM5.26562 15.5977C5.23828 15.6758 5.31641 15.7656 5.43359 15.7891C5.53516 15.8281 5.65234 15.7891 5.67578 15.7109C5.69922 15.6328 5.625 15.543 5.50781 15.5078C5.40625 15.4805 5.29297 15.5195 5.26562 15.5977ZM6.99219 15.5312C6.87891 15.5586 6.80078 15.6328 6.8125 15.7227C6.82422 15.8008 6.92578 15.8516 7.04297 15.8242C7.15625 15.7969 7.23438 15.7227 7.22266 15.6445C7.21094 15.5703 7.10547 15.5195 6.99219 15.5312ZM9.5625 0.5625C4.14453 0.5625 0 4.67578 0 10.0938C0 14.4258 2.72656 18.1328 6.62109 19.4375C7.12109 19.5273 7.29688 19.2188 7.29688 18.9648C7.29688 18.7227 7.28516 17.3867 7.28516 16.5664C7.28516 16.5664 4.55078 17.1523 3.97656 15.4023C3.97656 15.4023 3.53125 14.2656 2.89062 13.9727C2.89062 13.9727 1.99609 13.3594 2.95312 13.3711C2.95312 13.3711 3.92578 13.4492 4.46094 14.3789C5.31641 15.8867 6.75 15.4531 7.30859 15.1953C7.39844 14.5703 7.65234 14.1367 7.93359 13.8789C5.75 13.6367 3.54688 13.3203 3.54688 9.5625C3.54688 8.48828 3.84375 7.94922 4.46875 7.26172C4.36719 7.00781 4.03516 5.96094 4.57031 4.60938C5.38672 4.35547 7.26562 5.66406 7.26562 5.66406C8.04688 5.44531 8.88672 5.33203 9.71875 5.33203C10.5508 5.33203 11.3906 5.44531 12.1719 5.66406C12.1719 5.66406 14.0508 4.35156 14.8672 4.60938C15.4023 5.96484 15.0703 7.00781 14.9688 7.26172C15.5938 7.95312 15.9766 8.49219 15.9766 9.5625C15.9766 13.332 13.6758 13.6328 11.4922 13.8789C11.8516 14.1875 12.1562 14.7734 12.1562 15.6914C12.1562 17.0078 12.1445 18.6367 12.1445 18.957C12.1445 19.2109 12.3242 19.5195 12.8203 19.4297C16.7266 18.1328 19.375 14.4258 19.375 10.0938C19.375 4.67578 14.9805 0.5625 9.5625 0.5625ZM3.79688 14.0352C3.74609 14.0742 3.75781 14.1641 3.82422 14.2383C3.88672 14.3008 3.97656 14.3281 4.02734 14.2773C4.07812 14.2383 4.06641 14.1484 4 14.0742C3.9375 14.0117 3.84766 13.9844 3.79688 14.0352ZM3.375 13.7188C3.34766 13.7695 3.38672 13.832 3.46484 13.8711C3.52734 13.9102 3.60547 13.8984 3.63281 13.8438C3.66016 13.793 3.62109 13.7305 3.54297 13.6914C3.46484 13.668 3.40234 13.6797 3.375 13.7188ZM4.64062 15.1094C4.57812 15.1602 4.60156 15.2773 4.69141 15.3516C4.78125 15.4414 4.89453 15.4531 4.94531 15.3906C4.99609 15.3398 4.97266 15.2227 4.89453 15.1484C4.80859 15.0586 4.69141 15.0469 4.64062 15.1094ZM4.19531 14.5352C4.13281 14.5742 4.13281 14.6758 4.19531 14.7656C4.25781 14.8555 4.36328 14.8945 4.41406 14.8555C4.47656 14.8047 4.47656 14.7031 4.41406 14.6133C4.35938 14.5234 4.25781 14.4844 4.19531 14.5352Z" fill="#D1D5DB"/>
</g>
</g>
<defs>
<clipPath id="clip0_200_1447">
<rect width="19.375" height="20" fill="white" transform="translate(0 0.25)"/>
</clipPath>
<clipPath id="clip1_200_1447">
<path d="M0 0.25H19.375V20.25H0V0.25Z" fill="white"/>
</clipPath>
</defs>
</svg>
