<svg width="19" height="19" viewBox="0 0 19 19" fill="none" xmlns="http://www.w3.org/2000/svg">
<g clip-path="url(#clip0_205_2196)">
<g clip-path="url(#clip1_205_2196)">
<path d="M2.57812 2.5C2.57812 1.87773 2.07539 1.375 1.45312 1.375C0.830859 1.375 0.328125 1.87773 0.328125 2.5V14.3125C0.328125 15.8664 1.58672 17.125 3.14062 17.125H17.2031C17.8254 17.125 18.3281 16.6223 18.3281 16C18.3281 15.3777 17.8254 14.875 17.2031 14.875H3.14062C2.83125 14.875 2.57812 14.6219 2.57812 14.3125V2.5ZM16.8727 5.54453C17.3121 5.10508 17.3121 4.39141 16.8727 3.95195C16.4332 3.5125 15.7195 3.5125 15.2801 3.95195L11.5781 7.65742L9.56016 5.63945C9.1207 5.2 8.40703 5.2 7.96758 5.63945L4.03008 9.57695C3.59063 10.0164 3.59063 10.7301 4.03008 11.1695C4.46953 11.609 5.1832 11.609 5.62266 11.1695L8.76562 8.03008L10.7836 10.048C11.223 10.4875 11.9367 10.4875 12.3762 10.048L16.8762 5.54805L16.8727 5.54453Z" fill="#4AB2E3"/>
</g>
</g>
<defs>
<clipPath id="clip0_205_2196">
<rect width="18" height="18" fill="white" transform="translate(0.328125 0.25)"/>
</clipPath>
<clipPath id="clip1_205_2196">
<path d="M0.328125 0.25H18.3281V18.25H0.328125V0.25Z" fill="white"/>
</clipPath>
</defs>
</svg>
