<svg width="39" height="31" viewBox="0 0 39 31" fill="none" xmlns="http://www.w3.org/2000/svg">
<g clip-path="url(#clip0_200_1364)">
<g clip-path="url(#clip1_200_1364)">
<path d="M6.20312 8C6.20312 6.01088 6.9933 4.10322 8.39982 2.6967C9.80635 1.29018 11.714 0.5 13.7031 0.5C15.6922 0.5 17.5999 1.29018 19.0064 2.6967C20.4129 4.10322 21.2031 6.01088 21.2031 8C21.2031 9.98912 20.4129 11.8968 19.0064 13.3033C17.5999 14.7098 15.6922 15.5 13.7031 15.5C11.714 15.5 9.80635 14.7098 8.39982 13.3033C6.9933 11.8968 6.20312 9.98912 6.20312 8ZM0.578125 28.7598C0.578125 22.9883 5.25391 18.3125 11.0254 18.3125H16.3809C22.1523 18.3125 26.8281 22.9883 26.8281 28.7598C26.8281 29.7207 26.0488 30.5 25.0879 30.5H2.31836C1.35742 30.5 0.578125 29.7207 0.578125 28.7598ZM30.1094 18.7812V15.0312H26.3594C25.5801 15.0312 24.9531 14.4043 24.9531 13.625C24.9531 12.8457 25.5801 12.2188 26.3594 12.2188H30.1094V8.46875C30.1094 7.68945 30.7363 7.0625 31.5156 7.0625C32.2949 7.0625 32.9219 7.68945 32.9219 8.46875V12.2188H36.6719C37.4512 12.2188 38.0781 12.8457 38.0781 13.625C38.0781 14.4043 37.4512 15.0312 36.6719 15.0312H32.9219V18.7812C32.9219 19.5605 32.2949 20.1875 31.5156 20.1875C30.7363 20.1875 30.1094 19.5605 30.1094 18.7812Z" fill="#4AB2E3"/>
</g>
</g>
<defs>
<clipPath id="clip0_200_1364">
<rect width="37.5" height="30" fill="white" transform="translate(0.578125 0.5)"/>
</clipPath>
<clipPath id="clip1_200_1364">
<path d="M0.578125 0.5H38.0781V30.5H0.578125V0.5Z" fill="white"/>
</clipPath>
</defs>
</svg>
