<svg width="31" height="31" viewBox="0 0 31 31" fill="none" xmlns="http://www.w3.org/2000/svg">
<g clip-path="url(#clip0_200_1372)">
<g clip-path="url(#clip1_200_1372)">
<path d="M4.40625 4.25C4.40625 3.21289 3.56836 2.375 2.53125 2.375C1.49414 2.375 0.65625 3.21289 0.65625 4.25V23.9375C0.65625 26.5273 2.75391 28.625 5.34375 28.625H28.7812C29.8184 28.625 30.6562 27.7871 30.6562 26.75C30.6562 25.7129 29.8184 24.875 28.7812 24.875H5.34375C4.82812 24.875 4.40625 24.4531 4.40625 23.9375V4.25ZM28.2305 9.32422C28.9629 8.5918 28.9629 7.40234 28.2305 6.66992C27.498 5.9375 26.3086 5.9375 25.5762 6.66992L19.4062 12.8457L16.043 9.48242C15.3105 8.75 14.1211 8.75 13.3887 9.48242L6.82617 16.0449C6.09375 16.7773 6.09375 17.9668 6.82617 18.6992C7.55859 19.4316 8.74805 19.4316 9.48047 18.6992L14.7188 13.4668L18.082 16.8301C18.8145 17.5625 20.0039 17.5625 20.7363 16.8301L28.2363 9.33008L28.2305 9.32422Z" fill="#4AB2E3"/>
</g>
</g>
<defs>
<clipPath id="clip0_200_1372">
<rect width="30" height="30" fill="white" transform="translate(0.65625 0.5)"/>
</clipPath>
<clipPath id="clip1_200_1372">
<path d="M0.65625 0.5H30.6562V30.5H0.65625V0.5Z" fill="white"/>
</clipPath>
</defs>
</svg>
