<svg width="30" height="25" viewBox="0 0 30 25" fill="none" xmlns="http://www.w3.org/2000/svg">
<g clip-path="url(#clip0_200_1463)">
<path d="M9.75002 17.25C15.136 17.25 19.5 13.5562 19.5 9C19.5 4.44375 15.136 0.75 9.75002 0.75C4.36409 0.75 2.47395e-05 4.44375 2.47395e-05 9C2.47395e-05 10.8094 0.689087 12.4828 1.85627 13.8469C1.69221 14.2875 1.44846 14.6766 1.19065 15.0047C0.96565 15.2953 0.735962 15.5203 0.567212 15.675C0.482837 15.75 0.412525 15.8109 0.36565 15.8484C0.342212 15.8672 0.323462 15.8812 0.314087 15.8859L0.304712 15.8953C0.0468997 16.0875 -0.0656003 16.425 0.0375247 16.7297C0.14065 17.0344 0.426587 17.25 0.750025 17.25C1.7719 17.25 2.80315 16.9875 3.66096 16.6641C4.09221 16.5 4.49534 16.3172 4.8469 16.1297C6.28596 16.8422 7.9594 17.25 9.75002 17.25ZM21 9C21 14.2641 16.3547 18.2297 10.8516 18.7031C11.9906 22.1906 15.7688 24.75 20.25 24.75C22.0406 24.75 23.7141 24.3422 25.1578 23.6297C25.5094 23.8172 25.9078 24 26.3391 24.1641C27.1969 24.4875 28.2281 24.75 29.25 24.75C29.5735 24.75 29.8641 24.5391 29.9625 24.2297C30.061 23.9203 29.9531 23.5828 29.6907 23.3906L29.6813 23.3812C29.6719 23.3719 29.6531 23.3625 29.6297 23.3438C29.5828 23.3062 29.5125 23.25 29.4281 23.1703C29.2594 23.0156 29.0297 22.7906 28.8047 22.5C28.5469 22.1719 28.3031 21.7781 28.1391 21.3422C29.3063 19.9828 29.9953 18.3094 29.9953 16.4953C29.9953 12.1453 26.0156 8.57812 20.9672 8.26875C20.986 8.50781 20.9953 8.75156 20.9953 8.99531L21 9Z" fill="#4AB2E3"/>
</g>
<defs>
<clipPath id="clip0_200_1463">
<path d="M0 0.75H30V24.75H0V0.75Z" fill="white"/>
</clipPath>
</defs>
</svg>
