<svg width="24" height="31" viewBox="0 0 24 31" fill="none" xmlns="http://www.w3.org/2000/svg">
<g clip-path="url(#clip0_200_1369)">
<path d="M11.9844 0.5C8.87891 0.5 6.35938 3.01953 6.35938 6.125V15.5C6.35938 18.6055 8.87891 21.125 11.9844 21.125C15.0898 21.125 17.6094 18.6055 17.6094 15.5V6.125C17.6094 3.01953 15.0898 0.5 11.9844 0.5ZM4.48438 13.1562C4.48438 12.377 3.85742 11.75 3.07812 11.75C2.29883 11.75 1.67188 12.377 1.67188 13.1562V15.5C1.67188 20.7207 5.55078 25.0332 10.5781 25.7188V27.6875H7.76562C6.98633 27.6875 6.35938 28.3145 6.35938 29.0938C6.35938 29.873 6.98633 30.5 7.76562 30.5H11.9844H16.2031C16.9824 30.5 17.6094 29.873 17.6094 29.0938C17.6094 28.3145 16.9824 27.6875 16.2031 27.6875H13.3906V25.7188C18.418 25.0332 22.2969 20.7207 22.2969 15.5V13.1562C22.2969 12.377 21.6699 11.75 20.8906 11.75C20.1113 11.75 19.4844 12.377 19.4844 13.1562V15.5C19.4844 19.6426 16.127 23 11.9844 23C7.8418 23 4.48438 19.6426 4.48438 15.5V13.1562Z" fill="#4AB2E3"/>
</g>
<defs>
<clipPath id="clip0_200_1369">
<path d="M0.734375 0.5H23.2344V30.5H0.734375V0.5Z" fill="white"/>
</clipPath>
</defs>
</svg>
