<svg width="25" height="25" viewBox="0 0 25 25" fill="none" xmlns="http://www.w3.org/2000/svg">
<g clip-path="url(#clip0_200_1466)">
<path d="M8.95312 0.75C10.4016 0.75 11.5781 1.92656 11.5781 3.375V22.125C11.5781 23.5734 10.4016 24.75 8.95312 24.75C7.59844 24.75 6.48281 23.7234 6.34219 22.4016C6.09844 22.4672 5.84062 22.5 5.57812 22.5C3.92344 22.5 2.57812 21.1547 2.57812 19.5C2.57812 19.1531 2.63906 18.8156 2.74687 18.5062C1.33125 17.9719 0.328125 16.6031 0.328125 15C0.328125 13.5047 1.20469 12.2109 2.475 11.6109C2.06719 11.1 1.82812 10.4531 1.82812 9.75C1.82812 8.31094 2.84063 7.11094 4.19063 6.81562C4.11563 6.55781 4.07812 6.28125 4.07812 6C4.07812 4.59844 5.04375 3.41719 6.34219 3.08906C6.48281 1.77656 7.59844 0.75 8.95312 0.75ZM15.7031 0.75C17.0578 0.75 18.1688 1.77656 18.3141 3.08906C19.6172 3.41719 20.5781 4.59375 20.5781 6C20.5781 6.28125 20.5406 6.55781 20.4656 6.81562C21.8156 7.10625 22.8281 8.31094 22.8281 9.75C22.8281 10.4531 22.5891 11.1 22.1813 11.6109C23.4516 12.2109 24.3281 13.5047 24.3281 15C24.3281 16.6031 23.325 17.9719 21.9094 18.5062C22.0172 18.8156 22.0781 19.1531 22.0781 19.5C22.0781 21.1547 20.7328 22.5 19.0781 22.5C18.8156 22.5 18.5578 22.4672 18.3141 22.4016C18.1734 23.7234 17.0578 24.75 15.7031 24.75C14.2547 24.75 13.0781 23.5734 13.0781 22.125V3.375C13.0781 1.92656 14.2547 0.75 15.7031 0.75Z" fill="#4AB2E3"/>
</g>
<defs>
<clipPath id="clip0_200_1466">
<path d="M0.328125 0.75H24.3281V24.75H0.328125V0.75Z" fill="white"/>
</clipPath>
</defs>
</svg>
