<svg width="22" height="33" viewBox="0 0 22 33" fill="none" xmlns="http://www.w3.org/2000/svg">
<path d="M21.1562 32.75H0.15625V0.75H21.1562V32.75Z" stroke="#E5E7EB"/>
<g clip-path="url(#clip0_200_1356)">
<path d="M3.15625 7.25C1.50156 7.25 0.15625 8.59531 0.15625 10.25V25.25C0.15625 26.9047 1.50156 28.25 3.15625 28.25H18.1562C19.8109 28.25 21.1562 26.9047 21.1562 25.25V13.8734C21.1562 13.0766 20.8422 12.3125 20.2797 11.75L16.6562 8.12656C16.0938 7.56406 15.3297 7.25 14.5328 7.25H3.15625ZM3.15625 11.75C3.15625 10.9203 3.82656 10.25 4.65625 10.25H13.6562C14.4859 10.25 15.1562 10.9203 15.1562 11.75V14.75C15.1562 15.5797 14.4859 16.25 13.6562 16.25H4.65625C3.82656 16.25 3.15625 15.5797 3.15625 14.75V11.75ZM10.6562 19.25C11.4519 19.25 12.215 19.5661 12.7776 20.1287C13.3402 20.6913 13.6562 21.4544 13.6562 22.25C13.6562 23.0456 13.3402 23.8087 12.7776 24.3713C12.215 24.9339 11.4519 25.25 10.6562 25.25C9.8606 25.25 9.09754 24.9339 8.53493 24.3713C7.97232 23.8087 7.65625 23.0456 7.65625 22.25C7.65625 21.4544 7.97232 20.6913 8.53493 20.1287C9.09754 19.5661 9.8606 19.25 10.6562 19.25Z" fill="#4AB2E3"/>
</g>
<defs>
<clipPath id="clip0_200_1356">
<path d="M0.15625 5.75H21.1562V29.75H0.15625V5.75Z" fill="white"/>
</clipPath>
</defs>
</svg>
