<svg width="18" height="21" viewBox="0 0 18 21" fill="none" xmlns="http://www.w3.org/2000/svg">
<g clip-path="url(#clip0_200_1451)">
<path d="M16.625 1.5H1.62109C0.933594 1.5 0.375 2.06641 0.375 2.76172V17.7383C0.375 18.4336 0.933594 19 1.62109 19H16.625C17.3125 19 17.875 18.4336 17.875 17.7383V2.76172C17.875 2.06641 17.3125 1.5 16.625 1.5ZM5.66406 16.5H3.07031V8.14844H5.66797V16.5H5.66406ZM4.36719 7.00781C3.53516 7.00781 2.86328 6.33203 2.86328 5.50391C2.86328 4.67578 3.53516 4 4.36719 4C5.19531 4 5.87109 4.67578 5.87109 5.50391C5.87109 6.33594 5.19922 7.00781 4.36719 7.00781ZM15.3867 16.5H12.793V12.4375C12.793 11.4688 12.7734 10.2227 11.4453 10.2227C10.0938 10.2227 9.88672 11.2773 9.88672 12.3672V16.5H7.29297V8.14844H9.78125V9.28906H9.81641C10.1641 8.63281 11.0117 7.94141 12.2734 7.94141C14.8984 7.94141 15.3867 9.67188 15.3867 11.9219V16.5Z" fill="#D1D5DB"/>
</g>
<defs>
<clipPath id="clip0_200_1451">
<path d="M0.375 0.25H17.875V20.25H0.375V0.25Z" fill="white"/>
</clipPath>
</defs>
</svg>
