<svg width="19" height="19" viewBox="0 0 19 19" fill="none" xmlns="http://www.w3.org/2000/svg">
<g clip-path="url(#clip0_205_2203)">
<g clip-path="url(#clip1_205_2203)">
<path d="M5.67544 1.59297C6.02349 1.90586 6.05161 2.43672 5.73872 2.78476L3.20747 5.59726C3.05278 5.76953 2.83481 5.87148 2.60278 5.875C2.37075 5.87851 2.14927 5.79062 1.98403 5.6289L0.574268 4.22265C0.247314 3.89218 0.247314 3.35781 0.574268 3.02734C0.901221 2.69687 1.43911 2.69687 1.76606 3.02734L2.54302 3.80429L4.48013 1.65273C4.79302 1.30468 5.32388 1.27656 5.67192 1.58945L5.67544 1.59297ZM5.67544 7.21797C6.02349 7.53086 6.05161 8.06172 5.73872 8.40976L3.20747 11.2223C3.05278 11.3945 2.83481 11.4965 2.60278 11.5C2.37075 11.5035 2.14927 11.4156 1.98403 11.2539L0.574268 9.84765C0.243799 9.51718 0.243799 8.98281 0.574268 8.65586C0.904736 8.3289 1.43911 8.32539 1.76606 8.65586L2.54302 9.43281L4.48013 7.28125C4.79302 6.9332 5.32388 6.90508 5.67192 7.21797H5.67544ZM8.20317 3.625C8.20317 3.00273 8.70591 2.5 9.32817 2.5H17.2032C17.8254 2.5 18.3282 3.00273 18.3282 3.625C18.3282 4.24726 17.8254 4.75 17.2032 4.75H9.32817C8.70591 4.75 8.20317 4.24726 8.20317 3.625ZM8.20317 9.25C8.20317 8.62773 8.70591 8.125 9.32817 8.125H17.2032C17.8254 8.125 18.3282 8.62773 18.3282 9.25C18.3282 9.87226 17.8254 10.375 17.2032 10.375H9.32817C8.70591 10.375 8.20317 9.87226 8.20317 9.25ZM5.95317 14.875C5.95317 14.2527 6.45591 13.75 7.07817 13.75H17.2032C17.8254 13.75 18.3282 14.2527 18.3282 14.875C18.3282 15.4973 17.8254 16 17.2032 16H7.07817C6.45591 16 5.95317 15.4973 5.95317 14.875ZM2.01567 13.1875C2.46323 13.1875 2.89245 13.3653 3.20892 13.6818C3.52538 13.9982 3.70317 14.4274 3.70317 14.875C3.70317 15.3225 3.52538 15.7518 3.20892 16.0682C2.89245 16.3847 2.46323 16.5625 2.01567 16.5625C1.56812 16.5625 1.1389 16.3847 0.822431 16.0682C0.505963 15.7518 0.328174 15.3225 0.328174 14.875C0.328174 14.4274 0.505963 13.9982 0.822431 13.6818C1.1389 13.3653 1.56812 13.1875 2.01567 13.1875Z" fill="#4AB2E3"/>
</g>
</g>
<defs>
<clipPath id="clip0_205_2203">
<rect width="18" height="18" fill="white" transform="translate(0.328125 0.25)"/>
</clipPath>
<clipPath id="clip1_205_2203">
<path d="M0.328125 0.25H18.3281V18.25H0.328125V0.25Z" fill="white"/>
</clipPath>
</defs>
</svg>
