<svg width="14" height="16" viewBox="0 0 14 16" fill="none" xmlns="http://www.w3.org/2000/svg">
<g clip-path="url(#clip0_144_1714)">
<path d="M6.85317 0.0156189C6.95005 -0.0031311 7.05005 -0.0031311 7.14692 0.0156189L13.3969 1.26562C13.7469 1.33437 14 1.64374 14 1.99999C14 2.35624 13.7469 2.66562 13.3969 2.73437L11 3.21562V4.99999C11 7.20937 9.20942 8.99999 7.00005 8.99999C4.79067 8.99999 3.00005 7.20937 3.00005 4.99999V3.21562L1.50005 2.91562V4.94999L1.99067 7.39999C2.0188 7.54687 1.9813 7.69999 1.88755 7.81562C1.7938 7.93124 1.65005 7.99999 1.50005 7.99999H0.500048C0.350048 7.99999 0.209423 7.93437 0.112548 7.81562C0.0156733 7.69687 -0.0218267 7.54687 0.00942333 7.39999L0.500048 4.94999V2.70624C0.203173 2.60312 4.83317e-05 2.32187 4.83317e-05 1.99999C4.83317e-05 1.64374 0.253173 1.33437 0.603173 1.26562L6.85317 0.0156189ZM3.49692 10.2406C3.82505 10.1344 4.17817 10.2531 4.41567 10.5062L6.63442 12.8656C6.8313 13.075 7.16567 13.075 7.36255 12.8656L9.5813 10.5062C9.8188 10.2531 10.1719 10.1344 10.5 10.2406C12.5313 10.8937 14 12.7937 14 15.0406C14 15.5719 13.5688 16 13.0407 16H0.959423C0.431298 16 4.83317e-05 15.5687 4.83317e-05 15.0406C4.83317e-05 12.7937 1.4688 10.8937 3.49692 10.2406Z" fill="#4AB2E3"/>
</g>
<defs>
<clipPath id="clip0_144_1714">
<path d="M0 0H14V16H0V0Z" fill="white"/>
</clipPath>
</defs>
</svg>
