<svg width="26" height="29" viewBox="0 0 26 29" fill="none" xmlns="http://www.w3.org/2000/svg">
<path d="M25.5 28.75H0.5V0.75H25.5V28.75Z" stroke="#E5E7EB"/>
<g clip-path="url(#clip0_200_1490)">
<path d="M13 5.25C13.6914 5.25 14.25 5.80859 14.25 6.5V9H18.9375C20.4922 9 21.75 10.2578 21.75 11.8125V22.4375C21.75 23.9922 20.4922 25.25 18.9375 25.25H7.0625C5.50781 25.25 4.25 23.9922 4.25 22.4375V11.8125C4.25 10.2578 5.50781 9 7.0625 9H11.75V6.5C11.75 5.80859 12.3086 5.25 13 5.25ZM8.625 20.25C8.28125 20.25 8 20.5312 8 20.875C8 21.2188 8.28125 21.5 8.625 21.5H9.875C10.2188 21.5 10.5 21.2188 10.5 20.875C10.5 20.5312 10.2188 20.25 9.875 20.25H8.625ZM12.375 20.25C12.0312 20.25 11.75 20.5312 11.75 20.875C11.75 21.2188 12.0312 21.5 12.375 21.5H13.625C13.9688 21.5 14.25 21.2188 14.25 20.875C14.25 20.5312 13.9688 20.25 13.625 20.25H12.375ZM16.125 20.25C15.7812 20.25 15.5 20.5312 15.5 20.875C15.5 21.2188 15.7812 21.5 16.125 21.5H17.375C17.7188 21.5 18 21.2188 18 20.875C18 20.5312 17.7188 20.25 17.375 20.25H16.125ZM10.8125 15.25C10.8125 14.8356 10.6479 14.4382 10.3549 14.1451C10.0618 13.8521 9.6644 13.6875 9.25 13.6875C8.8356 13.6875 8.43817 13.8521 8.14515 14.1451C7.85212 14.4382 7.6875 14.8356 7.6875 15.25C7.6875 15.6644 7.85212 16.0618 8.14515 16.3549C8.43817 16.6479 8.8356 16.8125 9.25 16.8125C9.6644 16.8125 10.0618 16.6479 10.3549 16.3549C10.6479 16.0618 10.8125 15.6644 10.8125 15.25ZM16.75 16.8125C17.1644 16.8125 17.5618 16.6479 17.8549 16.3549C18.1479 16.0618 18.3125 15.6644 18.3125 15.25C18.3125 14.8356 18.1479 14.4382 17.8549 14.1451C17.5618 13.8521 17.1644 13.6875 16.75 13.6875C16.3356 13.6875 15.9382 13.8521 15.6451 14.1451C15.3521 14.4382 15.1875 14.8356 15.1875 15.25C15.1875 15.6644 15.3521 16.0618 15.6451 16.3549C15.9382 16.6479 16.3356 16.8125 16.75 16.8125ZM2.375 14H3V21.5H2.375C1.33984 21.5 0.5 20.6602 0.5 19.625V15.875C0.5 14.8398 1.33984 14 2.375 14ZM23.625 14C24.6602 14 25.5 14.8398 25.5 15.875V19.625C25.5 20.6602 24.6602 21.5 23.625 21.5H23V14H23.625Z" fill="#374B5F"/>
</g>
<defs>
<clipPath id="clip0_200_1490">
<path d="M0.5 5.25H25.5V25.25H0.5V5.25Z" fill="white"/>
</clipPath>
</defs>
</svg>
