<svg width="21" height="16" viewBox="0 0 21 16" fill="none" xmlns="http://www.w3.org/2000/svg">
<g clip-path="url(#clip0_144_1717)">
<path d="M12.6031 0.037513C12.0718 -0.115612 11.5187 0.193763 11.3656 0.725013L7.36558 14.725C7.21245 15.2563 7.52183 15.8094 8.05308 15.9625C8.58433 16.1156 9.13745 15.8063 9.29058 15.275L13.2906 1.27501C13.4437 0.743763 13.1343 0.190638 12.6031 0.037513ZM15.1218 3.79064C14.7312 4.18126 14.7312 4.81564 15.1218 5.20626L17.9125 8.00001L15.1187 10.7938C14.7281 11.1844 14.7281 11.8188 15.1187 12.2094C15.5093 12.6 16.1437 12.6 16.5343 12.2094L20.0343 8.70939C20.4249 8.31876 20.4249 7.68439 20.0343 7.29376L16.5343 3.79376C16.1437 3.40314 15.5093 3.40314 15.1187 3.79376L15.1218 3.79064ZM5.53745 3.79064C5.14683 3.40001 4.51245 3.40001 4.12183 3.79064L0.621826 7.29064C0.231201 7.68126 0.231201 8.31564 0.621826 8.70626L4.12183 12.2063C4.51245 12.5969 5.14683 12.5969 5.53745 12.2063C5.92808 11.8156 5.92808 11.1813 5.53745 10.7906L2.7437 8.00001L5.53745 5.20626C5.92808 4.81564 5.92808 4.18126 5.53745 3.79064Z" fill="#4AB2E3"/>
</g>
<defs>
<clipPath id="clip0_144_1717">
<path d="M0.328125 0H20.3281V16H0.328125V0Z" fill="white"/>
</clipPath>
</defs>
</svg>
