<svg width="15" height="16" viewBox="0 0 15 16" fill="none" xmlns="http://www.w3.org/2000/svg">
<g clip-path="url(#clip0_200_1614)">
<g clip-path="url(#clip1_200_1614)">
<path d="M7.28125 8C8.34212 8 9.35953 7.57857 10.1097 6.82843C10.8598 6.07828 11.2812 5.06087 11.2812 4C11.2812 2.93913 10.8598 1.92172 10.1097 1.17157C9.35953 0.421427 8.34212 0 7.28125 0C6.22038 0 5.20297 0.421427 4.45282 1.17157C3.70268 1.92172 3.28125 2.93913 3.28125 4C3.28125 5.06087 3.70268 6.07828 4.45282 6.82843C5.20297 7.57857 6.22038 8 7.28125 8ZM5.85313 9.5C2.775 9.5 0.28125 11.9937 0.28125 15.0719C0.28125 15.5844 0.696875 16 1.20938 16H13.3531C13.8656 16 14.2812 15.5844 14.2812 15.0719C14.2812 11.9937 11.7875 9.5 8.70938 9.5H5.85313Z" fill="#374B5F"/>
</g>
</g>
<defs>
<clipPath id="clip0_200_1614">
<rect width="14" height="16" fill="white" transform="translate(0.28125)"/>
</clipPath>
<clipPath id="clip1_200_1614">
<path d="M0.28125 0H14.2812V16H0.28125V0Z" fill="white"/>
</clipPath>
</defs>
</svg>
