<svg width="19" height="21" viewBox="0 0 19 21" fill="none" xmlns="http://www.w3.org/2000/svg">
<g clip-path="url(#clip0_200_1508)">
<g clip-path="url(#clip1_200_1508)">
<path d="M4.26562 0.75C2.19531 0.75 0.515625 2.42969 0.515625 4.5V17C0.515625 19.0703 2.19531 20.75 4.26562 20.75H15.5156H16.7656C17.457 20.75 18.0156 20.1914 18.0156 19.5C18.0156 18.8086 17.457 18.25 16.7656 18.25V15.75C17.457 15.75 18.0156 15.1914 18.0156 14.5V2C18.0156 1.30859 17.457 0.75 16.7656 0.75H15.5156H4.26562ZM4.26562 15.75H14.2656V18.25H4.26562C3.57422 18.25 3.01562 17.6914 3.01562 17C3.01562 16.3086 3.57422 15.75 4.26562 15.75ZM5.51562 6.375C5.51562 6.03125 5.79688 5.75 6.14062 5.75H13.6406C13.9844 5.75 14.2656 6.03125 14.2656 6.375C14.2656 6.71875 13.9844 7 13.6406 7H6.14062C5.79688 7 5.51562 6.71875 5.51562 6.375ZM6.14062 8.25H13.6406C13.9844 8.25 14.2656 8.53125 14.2656 8.875C14.2656 9.21875 13.9844 9.5 13.6406 9.5H6.14062C5.79688 9.5 5.51562 9.21875 5.51562 8.875C5.51562 8.53125 5.79688 8.25 6.14062 8.25Z" fill="#374151"/>
</g>
</g>
<defs>
<clipPath id="clip0_200_1508">
<rect width="17.5" height="20" fill="white" transform="translate(0.515625 0.75)"/>
</clipPath>
<clipPath id="clip1_200_1508">
<path d="M0.515625 0.75H18.0156V20.75H0.515625V0.75Z" fill="white"/>
</clipPath>
</defs>
</svg>
