<svg width="20" height="21" viewBox="0 0 20 21" fill="none" xmlns="http://www.w3.org/2000/svg">
<g clip-path="url(#clip0_205_1671)">
<path d="M20 20.5H0V0.5H20V20.5Z" stroke="#E5E7EB"/>
<path d="M0 4.25C0 2.87109 1.12109 1.75 2.5 1.75H17.5C18.8789 1.75 20 2.87109 20 4.25V16.75C20 18.1289 18.8789 19.25 17.5 19.25H2.5C1.12109 19.25 0 18.1289 0 16.75V4.25ZM12.6484 8.41016C12.4727 8.15234 12.1836 8 11.875 8C11.5664 8 11.2734 8.15234 11.1016 8.41016L7.70312 13.3945L6.66797 12.1016C6.48828 11.8789 6.21875 11.75 5.9375 11.75C5.65625 11.75 5.38281 11.8789 5.20703 12.1016L2.70703 15.2266C2.48047 15.5078 2.4375 15.8945 2.59375 16.2188C2.75 16.543 3.07812 16.75 3.4375 16.75H7.1875H8.4375H16.5625C16.9102 16.75 17.2305 16.5586 17.3906 16.25C17.5508 15.9414 17.5312 15.5703 17.3359 15.2852L12.6484 8.41016ZM4.375 8C4.87228 8 5.34919 7.80246 5.70083 7.45083C6.05246 7.09919 6.25 6.62228 6.25 6.125C6.25 5.62772 6.05246 5.15081 5.70083 4.79917C5.34919 4.44754 4.87228 4.25 4.375 4.25C3.87772 4.25 3.40081 4.44754 3.04917 4.79917C2.69754 5.15081 2.5 5.62772 2.5 6.125C2.5 6.62228 2.69754 7.09919 3.04917 7.45083C3.40081 7.80246 3.87772 8 4.375 8Z" fill="#4AB2E3"/>
</g>
<defs>
<clipPath id="clip0_205_1671">
<rect width="20" height="20" fill="white" transform="translate(0 0.5)"/>
</clipPath>
</defs>
</svg>
