<svg width="17" height="19" viewBox="0 0 17 19" fill="none" xmlns="http://www.w3.org/2000/svg">
<g clip-path="url(#clip0_205_1753)">
<path d="M2.65625 1.375C1.41523 1.375 0.40625 2.38398 0.40625 3.625V14.875C0.40625 16.116 1.41523 17.125 2.65625 17.125H13.9062C15.1473 17.125 16.1562 16.116 16.1562 14.875V6.34258C16.1562 5.74492 15.9207 5.17188 15.4988 4.75L12.7812 2.03242C12.3594 1.61055 11.7863 1.375 11.1887 1.375H2.65625ZM2.65625 4.75C2.65625 4.12773 3.15898 3.625 3.78125 3.625H10.5312C11.1535 3.625 11.6562 4.12773 11.6562 4.75V7C11.6562 7.62227 11.1535 8.125 10.5312 8.125H3.78125C3.15898 8.125 2.65625 7.62227 2.65625 7V4.75ZM8.28125 10.375C8.87799 10.375 9.45028 10.6121 9.87224 11.034C10.2942 11.456 10.5312 12.0283 10.5312 12.625C10.5312 13.2217 10.2942 13.794 9.87224 14.216C9.45028 14.6379 8.87799 14.875 8.28125 14.875C7.68451 14.875 7.11222 14.6379 6.69026 14.216C6.2683 13.794 6.03125 13.2217 6.03125 12.625C6.03125 12.0283 6.2683 11.456 6.69026 11.034C7.11222 10.6121 7.68451 10.375 8.28125 10.375Z" fill="white"/>
</g>
<defs>
<clipPath id="clip0_205_1753">
<path d="M0.40625 0.25H16.1562V18.25H0.40625V0.25Z" fill="white"/>
</clipPath>
</defs>
</svg>
