<svg width="19" height="16" viewBox="0 0 19 16" fill="none" xmlns="http://www.w3.org/2000/svg">
<g clip-path="url(#clip0_144_1720)">
<path d="M10.5594 0.5625C10.3938 0.21875 10.0438 0 9.65941 0C9.27503 0 8.92815 0.21875 8.75941 0.5625L6.75003 4.69688L2.26253 5.35938C1.88753 5.41563 1.57503 5.67812 1.45941 6.0375C1.34378 6.39687 1.43753 6.79375 1.70628 7.05937L4.96253 10.2812L4.19378 14.8344C4.13128 15.2094 4.28753 15.5906 4.59691 15.8125C4.90628 16.0344 5.31566 16.0625 5.65316 15.8844L9.66253 13.7437L13.6719 15.8844C14.0094 16.0625 14.4188 16.0375 14.7282 15.8125C15.0375 15.5875 15.1938 15.2094 15.1313 14.8344L14.3594 10.2812L17.6157 7.05937C17.8844 6.79375 17.9813 6.39687 17.8625 6.0375C17.7438 5.67812 17.4344 5.41563 17.0594 5.35938L12.5688 4.69688L10.5594 0.5625Z" fill="#4AB2E3"/>
</g>
<defs>
<clipPath id="clip0_144_1720">
<path d="M0.65625 0H18.6562V16H0.65625V0Z" fill="white"/>
</clipPath>
</defs>
</svg>
