<svg width="21" height="16" viewBox="0 0 21 16" fill="none" xmlns="http://www.w3.org/2000/svg">
<g clip-path="url(#clip0_144_1738)">
<path d="M12.6656 0.0374977C12.1343 -0.115627 11.5812 0.193748 11.4281 0.724998L7.42808 14.725C7.27495 15.2562 7.58433 15.8094 8.11558 15.9625C8.64683 16.1156 9.19995 15.8062 9.35308 15.275L13.3531 1.275C13.5062 0.743748 13.1968 0.190623 12.6656 0.0374977ZM15.1843 3.79062C14.7937 4.18125 14.7937 4.81562 15.1843 5.20625L17.975 8L15.1812 10.7937C14.7906 11.1844 14.7906 11.8187 15.1812 12.2094C15.5718 12.6 16.2062 12.6 16.5968 12.2094L20.0968 8.70937C20.4874 8.31875 20.4874 7.68437 20.0968 7.29375L16.5968 3.79375C16.2062 3.40312 15.5718 3.40312 15.1812 3.79375L15.1843 3.79062ZM5.59995 3.79062C5.20933 3.4 4.57495 3.4 4.18433 3.79062L0.684326 7.29062C0.293701 7.68125 0.293701 8.31562 0.684326 8.70625L4.18433 12.2062C4.57495 12.5969 5.20933 12.5969 5.59995 12.2062C5.99058 11.8156 5.99058 11.1812 5.59995 10.7906L2.8062 8L5.59995 5.20625C5.99058 4.81562 5.99058 4.18125 5.59995 3.79062Z" fill="#4AB2E3"/>
</g>
<defs>
<clipPath id="clip0_144_1738">
<path d="M0.390625 0H20.3906V16H0.390625V0Z" fill="white"/>
</clipPath>
</defs>
</svg>
