<svg width="21" height="21" viewBox="0 0 21 21" fill="none" xmlns="http://www.w3.org/2000/svg">
<g clip-path="url(#clip0_200_1454)">
<path d="M18.8191 6.17638C18.8318 6.35403 18.8318 6.53173 18.8318 6.70938C18.8318 12.1281 14.7075 18.3718 7.16941 18.3718C4.84707 18.3718 2.68973 17.6992 0.875 16.5317C1.20496 16.5698 1.52219 16.5825 1.86484 16.5825C3.78105 16.5825 5.54504 15.9353 6.95367 14.8312C5.15164 14.7931 3.64148 13.6129 3.12117 11.9886C3.375 12.0266 3.62879 12.052 3.89531 12.052C4.26332 12.052 4.63137 12.0012 4.97398 11.9124C3.09582 11.5317 1.68715 9.88196 1.68715 7.88958V7.83884C2.23281 8.14341 2.86738 8.33376 3.53992 8.35911C2.43586 7.62306 1.71254 6.36673 1.71254 4.9454C1.71254 4.18399 1.91555 3.48603 2.2709 2.87688C4.28867 5.36419 7.32168 6.98853 10.7227 7.16622C10.6592 6.86165 10.6211 6.54442 10.6211 6.22716C10.6211 3.96825 12.4486 2.12817 14.7201 2.12817C15.9003 2.12817 16.9663 2.6231 17.715 3.42259C18.6414 3.24493 19.5297 2.90228 20.3166 2.43274C20.012 3.38454 19.3648 4.18403 18.5145 4.69161C19.3394 4.60282 20.1389 4.37435 20.8749 4.05712C20.3166 4.86927 19.6186 5.59259 18.8191 6.17638Z" fill="#D1D5DB"/>
</g>
<defs>
<clipPath id="clip0_200_1454">
<path d="M0.875 0.25H20.875V20.25H0.875V0.25Z" fill="white"/>
</clipPath>
</defs>
</svg>
